<svg version="1.2" xmlns="http://www.w3.org/2000/svg" viewBox="0 0 500 500" width="500" height="500"><style>.a{fill:#a60000}</style><path fill-rule="evenodd" d="m81.7 206.8q2.6 0 4.2 2.5 1.5 2.4 1.5 6.8 0 7.4-3.5 12.7-5.7 8.8-15.1 13.8-9.3 4.9-22.3 4.9-19.7 0-30.6-11.8-10.9-11.8-10.9-32 0-14.2 6-26.4 5.9-12.2 16.5-19.4 10.6-7.2 23.9-7.2 12 0 19.2 7.1 7.1 7.1 7.1 19.2 0 14.2-10.1 24.4-10.2 10.1-34.7 16.1 5 9.4 16.7 9.4 8.4 0 13.9-3.9 5.4-3.9 12.6-13.1 2.5-3.1 5.6-3.1zm-33.8-36q-7.6 0-12.8 8.9-5.2 8.8-5.2 21.4v0.4q12.1-2.9 19.1-8.7 7-5.7 7-13.3 0-3.9-2.2-6.3-2.2-2.4-5.9-2.4z"/><path class="a" d="m146.2 248.1q-27.3 0-43.8-10.4-16.4-10.3-16.4-31.7 0-11.3 3.9-17.3 3.9-5.9 11.5-5.9 5.5 0 9 2.8 3.5 2.9 3.5 7.4 0 4.1-0.6 7.2 0 0.9-0.3 2.9-0.3 2.1-0.3 4.3 0 9.3 9.3 13.8 9.4 4.5 26.2 4.5 17.5 0 27.4-6.3 9.8-6.2 9.8-17.5 0-7-4.5-12-4.5-5.1-11.3-8.5-6.8-3.4-19.1-8.3-15.8-6.2-25.8-11.7-10-5.6-17-15.1-7.1-9.6-7.1-23.7 0-14.8 7.9-26.4 7.9-11.5 22.8-17.8 14.9-6.4 35-6.4 15 0 27.6 4.4 12.5 4.4 20 13.5 7.5 9 7.5 22.2 0 12.9-3.9 19.5-3.9 6.6-11.5 6.6-5.4 0-9-3.3-3.5-3.3-3.5-7.8 0-3.9 0.6-7.2 0.6-6.2 0.6-7.8 0-8.7-8.4-13.2-8.5-4.5-21-4.5-17.7 0-27 6.5-9.4 6.4-9.4 18.2 0 7.8 4.9 13.3 4.8 5.6 12 9.3 7.2 3.7 20.1 8.8 15.6 6.4 25.1 11.5 9.4 5.1 16.1 14 6.7 8.8 6.7 21.8 0 24.2-18.4 37.3-18.4 13-49.2 13z"/><path class="a" d="m257.2 137.1q-8.7 0-13-4-4.3-4-4.3-11.2 0-7.2 5.7-12 5.6-4.8 14-4.8 7.6 0 12.4 3.7 4.7 3.7 4.7 10.5 0 8.2-5.4 13-5.3 4.8-14.1 4.8zm-1.7 110.4q-13.3 0-19.4-9.5-6.1-9.4-6.1-25 0-9.3 2.4-23.8 2.4-14.5 6.1-27 1.8-6.6 4.9-9 3.1-2.5 9.9-2.5 10.4 0 10.4 7 0 5.1-3.9 23.8-4.9 22.6-4.9 30.7 0 6.1 1.6 9.4 1.7 3.3 5.6 3.3 3.7 0 9.2-5.1 5.6-5.2 14.8-16.3 2.5-2.9 5.6-2.9 2.7 0 4.2 2.5 1.5 2.5 1.5 6.8 0 8.2-3.9 12.7-20.3 24.9-38 24.9z"/><path fill-rule="evenodd" class="a" d="m386 201.1q2.7 0 4.2 2.5 1.6 2.6 1.6 6.5 0 4.7-1.5 7.4-1.4 2.7-4.5 4.7-17.7 11.9-25.9 17.7l-13.1 8.8q-7.8 42.6-20.5 66.9-12.6 24.4-32.1 24.4-10.5 0-17.1-6.5-6.6-6.5-6.6-17 0-14.5 11.5-31.3 11.5-16.7 43.2-41.2l1.2-8q-3.5 5.5-9.1 8.5-5.7 3-11.2 3-12.8 0-20.4-9.3-7.6-9.2-7.6-24.2 0-16.4 7.6-31.1 7.6-14.7 20.3-23.7 12.6-8.9 26.8-8.9 4.5 0 6.1 1.7 1.5 1.8 2.5 6.3 3.9-0.8 9.1-0.8 5.1 0 7.3 1.5 2.1 1.6 2.1 6.1 0 2.5-0.2 3.9-0.8 6.4-5.1 32.3-0.8 4.9-1.8 10.7-0.9 5.9-1.9 12.5 15.8-12.3 30.4-21.8 2.7-1.6 4.7-1.6zm-72.5 25.6q4.7 0 9-5.7 4.3-5.8 6.2-16.5l6.6-35.1q-8.5 0.2-15.7 6.5-7.1 6.2-11.5 16.5-4.3 10.3-4.3 21.8 0 6.4 2.6 9.5 2.6 3 7.1 3zm-17.1 93.3q5.2 0 11.6-12.3 6.5-12.3 12.5-39.2-15.9 13.5-22.8 24.4-7 10.9-7 19.1 0 3.5 1.3 5.8 1.3 2.2 4.4 2.2z"/><path class="a" d="m391.6 247.5q-7.8 0-11-8.2-3.2-8.2-3.2-26.3 0-26.7 7.6-50.8 1.9-5.9 6.1-8.7 4.2-2.8 11.8-2.8 4.1 0 5.7 1 1.7 1.1 1.7 3.9 0 3.3-3.1 14.8-2.1 8.3-3.3 14.4-1.2 6.2-2 15.2 6.7-17.6 15.2-28.7 8.4-11.1 16.5-15.9 8.1-4.7 14.9-4.7 13.4 0 13.4 13.4 0 8-4.6 28.9-3.9 17.9-3.9 23.7 0 8.2 6 8.2 4.1 0 9.8-5 5.6-5.1 15.1-16.4 2.4-2.9 5.5-2.9 2.7 0 4.2 2.5 1.6 2.5 1.6 6.8 0 8.2-3.9 12.7-8.9 10.9-19.1 17.9-10.1 7-23.1 7-10.5 0-15.8-6.1-5.3-6-5.3-17.5 0-5.8 2.8-20.6 2.7-12.9 2.7-17.9 0-3.3-2.3-3.3-2.6 0-7.5 6.9-4.8 6.9-9.8 18.2-5 11.3-8.1 23.9-2.3 9.6-5.3 13-3 3.4-9.3 3.4z"/><path fill-rule="evenodd" class="a" d="m808.1 92.5q1.9 0 2.9 1.7 1.1 1.7 1.1 4.7 0 5.1-2.4 8.8-4 6.1-10.4 9.5-6.5 3.4-15.5 3.4-13.6 0-21.1-8.2-7.5-8.1-7.5-22.1 0-9.8 4.1-18.2 4.1-8.5 11.4-13.4 7.3-5 16.6-5 8.2 0 13.2 4.9 4.9 4.9 4.9 13.3 0 9.8-7 16.8-7 7-23.9 11.2 3.4 6.5 11.5 6.5 5.8 0 9.6-2.7 3.7-2.7 8.7-9.1 1.7-2.1 3.8-2.1zm-23.3-24.9q-5.2 0-8.8 6.1-3.7 6.1-3.7 14.8v0.3q8.4-2 13.3-6 4.8-4 4.8-9.2 0-2.7-1.5-4.3-1.5-1.7-4.1-1.7z"/><path fill-rule="evenodd" d="m94 414.9q-3.4 0-5.9-1.3-2.5-1.2-4-3.5l-0.8 4h-6.8v-42.7h7.6v17.5q1.4-1.9 3.8-3.4 2.3-1.5 6.1-1.5 4.1 0 7.4 2 3.2 2 5.1 5.5 1.9 3.5 1.9 8 0 4.4-1.9 7.9-1.9 3.5-5.1 5.5-3.3 2-7.4 2zm-1.6-6.7q3.6 0 5.9-2.4 2.4-2.4 2.4-6.3 0-3.9-2.4-6.4-2.3-2.4-5.9-2.4-3.7 0-6.1 2.4-2.3 2.5-2.3 6.3 0 3.9 2.3 6.4 2.4 2.4 6.1 2.4z"/><path  d="m116.2 427.2l6.8-15h-1.8l-11.4-27.5h8.2l8.3 20.7 8.6-20.7h8l-18.6 42.5z"/><path class="a" d="m176.4 414.9q-4.5 0-8-1.6-3.5-1.6-5.6-4.5-2-3-2-7.2h8q0.1 2.9 2.1 4.9 2 2 5.5 2 3 0 4.8-1.4 1.8-1.5 1.8-3.9 0-2.6-1.6-4-1.6-1.4-4.2-2.3-2.6-0.9-5.6-1.9-4.8-1.7-7.3-4.3-2.5-2.6-2.5-6.9-0.1-3.7 1.7-6.3 1.8-2.7 5-4.1 3.1-1.5 7.2-1.5 4.2 0 7.3 1.5 3.2 1.5 5 4.1 1.8 2.7 2 6.4h-8.2q0-2.2-1.7-3.9-1.6-1.7-4.5-1.7-2.5 0-4.2 1.2-1.7 1.3-1.7 3.7 0 2.1 1.3 3.3 1.3 1.2 3.6 2.1 2.2 0.8 5.2 1.8 3 1 5.6 2.4 2.5 1.5 4.1 3.8 1.5 2.4 1.5 6 0 3.3-1.6 6.1-1.7 2.8-5 4.5-3.2 1.7-8 1.7z"/><path fill-rule="evenodd" class="a" d="m220.9 427.2v-17.3q-1.5 2-3.8 3.5-2.3 1.5-6.1 1.5-4.1 0-7.4-2.1-3.3-2-5.2-5.5-1.9-3.5-1.9-7.9 0-4.5 1.9-7.9 1.9-3.5 5.2-5.5 3.3-2 7.4-2 3.3 0 5.8 1.3 2.5 1.2 4.1 3.5l0.8-4.1h6.8v42.5zm-8.3-19q3.7 0 6-2.4 2.4-2.5 2.4-6.4 0-3.8-2.4-6.3-2.3-2.4-6-2.4-3.6 0-6 2.4-2.3 2.4-2.3 6.3 0 3.8 2.3 6.3 2.4 2.5 6 2.5z"/><path class="a" d="m247.2 414.9q-5.5 0-8.5-3.5-3-3.4-3-10.1v-16.6h7.5v15.9q0 3.8 1.6 5.8 1.5 2.1 4.8 2.1 3.2 0 5.2-2.3 2.1-2.3 2.1-6.3v-15.2h7.6v29.4h-6.7l-0.6-4.9q-1.4 2.6-4 4.1-2.6 1.6-6 1.6z"/><path class="a" d="m276.3 380.2q-2 0-3.4-1.3-1.3-1.2-1.3-3.1 0-1.9 1.3-3.2 1.4-1.2 3.4-1.2 2.1 0 3.4 1.2 1.4 1.3 1.4 3.2 0 1.9-1.4 3.1-1.3 1.3-3.4 1.3zm-3.8 4.5h7.6v29.4h-7.6z"/><path fill-rule="evenodd" class="a" d="m301.6 414.9q-4.1 0-7.4-2.1-3.3-2-5.2-5.5-1.9-3.5-1.9-7.9 0-4.5 1.9-7.9 1.9-3.5 5.2-5.5 3.3-2 7.4-2 3.3 0 5.8 1.3 2.5 1.2 4.1 3.5v-17.4h7.6v42.7h-6.8l-0.8-4.2q-1.5 2-3.8 3.5-2.3 1.5-6.1 1.5zm1.6-6.7q3.7 0 6-2.4 2.4-2.5 2.4-6.4 0-3.8-2.4-6.3-2.3-2.4-6-2.4-3.6 0-6 2.4-2.3 2.4-2.3 6.3 0 3.8 2.3 6.3 2.4 2.5 6 2.5z"/><path  d="m341.2 414.9q-4.6 0-8.1-1.6-3.5-1.6-5.5-4.5-2-3-2.1-7.2h8q0.1 2.9 2.1 4.9 2 2 5.5 2 3 0 4.8-1.4 1.8-1.5 1.8-3.9 0-2.6-1.6-4-1.6-1.4-4.2-2.3-2.6-0.9-5.5-1.9-4.9-1.7-7.4-4.3-2.5-2.6-2.5-6.9-0.1-3.7 1.8-6.3 1.8-2.7 4.9-4.1 3.2-1.5 7.2-1.5 4.2 0 7.4 1.5 3.1 1.5 5 4.1 1.8 2.7 1.9 6.4h-8.1q-0.1-2.2-1.7-3.9-1.7-1.7-4.6-1.7-2.5 0-4.2 1.2-1.6 1.3-1.6 3.7 0 2.1 1.3 3.3 1.3 1.2 3.5 2.1 2.3 0.8 5.2 1.8 3.1 1 5.6 2.4 2.6 1.5 4.1 3.8 1.6 2.4 1.6 6 0 3.3-1.7 6.1-1.7 2.8-4.9 4.5-3.3 1.7-8 1.7z"/><path fill-rule="evenodd" d="m376.3 414.9q-4.2 0-7.6-2-3.5-2-5.4-5.4-2-3.5-2-8.1 0-4.5 2-8 2-3.5 5.4-5.4 3.4-2 7.7-2 4.2 0 7.6 2 3.4 1.9 5.4 5.4 2 3.5 2 8 0 4.6-2 8.1-2 3.4-5.4 5.4-3.4 2-7.7 2zm0-6.6q3 0 5.2-2.2 2.2-2.3 2.2-6.7 0-4.4-2.2-6.6-2.2-2.2-5.1-2.2-3 0-5.2 2.2-2.2 2.2-2.2 6.6 0 4.4 2.2 6.7 2.2 2.2 5.1 2.2z"/><path  d="m399.5 414.1v-23h-4v-6.4h4v-3.4q0-5.4 2.7-7.6 2.7-2.3 7.4-2.3h3.2v6.5h-2.1q-1.9 0-2.7 0.8-0.9 0.7-0.9 2.6v3.4h6.4v6.4h-6.4v23z"/><path  d="m432.6 414.1q-4.6 0-7.4-2.2-2.8-2.3-2.8-8v-12.8h-5.1v-6.4h5.1l0.9-7.9h6.7v7.9h7.9v6.4h-7.9v12.8q0 2.2 0.9 3 0.9 0.8 3.2 0.8h3.6v6.4z"/></svg>