<svg version="1.2" xmlns="http://www.w3.org/2000/svg" viewBox="0 0 1000 500" width="1000" height="500"><style>tspan{white-space:pre}.a{fill:#a60000}</style><path fill-rule="evenodd" d="m108.7 241.2q3.8 0 6 3.5 2.2 3.5 2.2 9.6 0 10.5-5 18-8.2 12.6-21.4 19.6-13.3 7-31.6 7-28 0-43.5-16.8-15.4-16.8-15.4-45.3 0-20.1 8.5-37.5 8.4-17.3 23.4-27.5 15-10.2 34-10.2 16.9 0 27.1 10.1 10.2 10 10.2 27.2 0 20.1-14.5 34.5-14.4 14.5-49.1 22.9 7 13.4 23.6 13.4 12 0 19.7-5.5 7.7-5.6 17.9-18.7 3.5-4.3 7.9-4.3zm-47.8-51q-10.8 0-18.2 12.5-7.4 12.5-7.4 30.3v0.6q17.2-4.1 27.1-12.3 9.9-8.1 9.9-18.9 0-5.5-3.1-8.9-3.1-3.3-8.3-3.3z"/><path class="a" d="m200.2 299.7q-38.8 0-62.1-14.7-23.3-14.7-23.3-45 0-16 5.6-24.5 5.5-8.4 16.3-8.4 7.8 0 12.8 4 5 4.1 5 10.5 0 5.9-0.9 10.2 0 1.2-0.5 4.1-0.4 2.9-0.4 6.1 0 13.1 13.3 19.6 13.2 6.4 37.1 6.4 24.8 0 38.8-8.9 14-8.9 14-24.9 0-9.9-6.4-17.1-6.5-7.1-16.1-11.9-9.6-4.8-27.1-11.8-22.4-8.8-36.5-16.6-14.2-7.9-24.2-21.5-10.1-13.5-10.1-33.6 0-21 11.2-37.3 11.3-16.3 32.4-25.4 21.1-9 49.7-9 21.2 0 39 6.3 17.8 6.2 28.4 19.1 10.7 12.8 10.7 31.4 0 18.4-5.6 27.7-5.5 9.3-16.3 9.3-7.6 0-12.7-4.6-5.1-4.7-5.1-11.1 0-5.5 0.9-10.2 0.9-8.7 0.9-11.1 0-12.2-12-18.6-11.9-6.4-29.7-6.4-25.1 0-38.3 9.1-13.3 9.2-13.3 25.8 0 11.1 6.9 19 6.8 7.8 17 13.1 10.2 5.2 28.6 12.5 22.1 9 35.5 16.3 13.4 7.3 22.9 19.8 9.5 12.6 9.5 30.9 0 34.4-26.1 52.9-26.1 18.5-69.8 18.5z"/><path class="a" d="m357.6 142.4q-12.3 0-18.4-5.7-6.1-5.7-6.1-15.9 0-10.2 8-17 8-6.9 20-6.9 10.7 0 17.5 5.3 6.7 5.2 6.7 14.8 0 11.7-7.6 18.5-7.6 6.9-20.1 6.9zm-2.4 156.5q-18.9 0-27.5-13.4-8.6-13.5-8.6-35.6 0-13.1 3.4-33.7 3.3-20.5 8.6-38.3 2.6-9.3 6.9-12.8 4.4-3.5 14-3.5 14.9 0 14.9 9.9 0 7.3-5.5 33.8-7 32.1-7 43.4 0 8.8 2.3 13.4 2.3 4.7 7.9 4.7 5.2 0 13.1-7.3 7.8-7.3 21-23 3.5-4.1 7.8-4.1 3.8 0 6 3.5 2.2 3.5 2.2 9.6 0 11.7-5.6 18.1-28.8 35.3-53.9 35.3z"/><path fill-rule="evenodd" class="a" d="m540.3 233q3.8 0 6 3.6 2.1 3.7 2.1 9.2 0 6.7-2 10.5-2 3.8-6.4 6.7-25.1 16.9-36.7 25.1l-18.7 12.5q-11 60.3-29 94.9-17.9 34.5-45.6 34.5-14.8 0-24.2-9.2-9.3-9.2-9.3-24 0-20.7 16.3-44.5 16.4-23.7 61.2-58.4l1.8-11.4q-5 7.9-13 12.1-8 4.3-15.9 4.3-18 0-28.8-13.2-10.8-13.1-10.8-34.3 0-23.4 10.8-44.2 10.8-20.8 28.7-33.5 17.9-12.7 38-12.7 6.4 0 8.6 2.5 2.2 2.5 3.7 8.9 5.5-1.2 12.8-1.2 7.3 0 10.3 2.2 3.1 2.2 3.1 8.6 0 3.5-0.3 5.5-1.2 9.1-7.3 45.8-1.2 7-2.5 15.3-1.3 8.3-2.7 17.6 22.4-17.5 43.1-30.9 3.8-2.3 6.7-2.3zm-102.9 36.4q6.7 0 12.8-8.1 6.2-8.2 8.8-23.3l9.3-49.9q-11.9 0.3-22.1 9.2-10.2 8.9-16.4 23.5-6.1 14.5-6.1 30.8 0 9.1 3.7 13.5 3.6 4.3 10 4.3zm-24.2 132.3q7.3 0 16.5-17.5 9.2-17.4 17.6-55.6-22.4 19.2-32.3 34.7-9.9 15.4-9.9 27.1 0 4.9 1.9 8.1 1.9 3.2 6.2 3.2z"/><path class="a" d="m548.2 298.9q-11.1 0-15.6-11.7-4.5-11.7-4.5-37.3 0-37.9 10.7-72 2.7-8.4 8.6-12.4 6-3.9 16.8-3.9 5.8 0 8.2 1.5 2.3 1.4 2.3 5.5 0 4.7-4.4 21-2.9 11.6-4.6 20.4-1.8 8.7-3 21.5 9.7-25 21.6-40.8 12-15.7 23.5-22.4 11.5-6.7 21.1-6.7 18.9 0 18.9 18.9 0 11.4-6.4 41.1-5.5 25.4-5.5 33.5 0 11.7 8.4 11.7 5.9 0 13.9-7.1 8-7.2 21.4-23.2 3.5-4.1 7.9-4.1 3.7 0 5.9 3.5 2.2 3.5 2.2 9.6 0 11.7-5.5 18.1-12.5 15.4-27 25.3-14.4 10-32.8 10-14.8 0-22.4-8.6-7.6-8.6-7.6-25 0-8.1 4.1-29.1 3.8-18.4 3.8-25.3 0-4.7-3.2-4.7-3.8 0-10.6 9.8-6.9 9.7-14 25.7-7.2 16.1-11.5 33.8-3.2 13.7-7.5 18.5-4.2 4.9-13.2 4.9z"/><path fill-rule="evenodd" class="a" d="m1058.1 92.5q1.9 0 2.9 1.7 1.1 1.7 1.1 4.7 0 5.1-2.4 8.8-4 6.1-10.4 9.5-6.5 3.4-15.5 3.4-13.6 0-21.1-8.2-7.5-8.1-7.5-22.1 0-9.8 4.1-18.2 4.1-8.5 11.4-13.4 7.3-5 16.6-5 8.2 0 13.2 4.9 4.9 4.9 4.9 13.3 0 9.8-7 16.8-7 7-23.9 11.2 3.4 6.5 11.5 6.5 5.8 0 9.6-2.7 3.7-2.7 8.7-9.1 1.7-2.1 3.8-2.1zm-23.3-24.9q-5.2 0-8.8 6.1-3.7 6.1-3.7 14.8v0.3q8.4-2 13.3-6 4.8-4 4.8-9.2 0-2.7-1.5-4.3-1.5-1.7-4.1-1.7z"/><path fill-rule="evenodd" d="m512.2 432.2q-4.7 0-8.2-1.8-3.5-1.8-5.7-5l-1.2 5.7h-9.6v-60.5h10.8v24.8q2-2.8 5.3-4.9 3.3-2.1 8.6-2.1 5.9 0 10.6 2.9 4.6 2.8 7.3 7.8 2.7 4.9 2.7 11.3 0 6.3-2.7 11.2-2.7 4.9-7.3 7.7-4.7 2.9-10.6 2.9zm-2.2-9.5q5.1 0 8.5-3.4 3.3-3.5 3.3-8.9 0-5.5-3.3-9-3.4-3.6-8.5-3.6-5.2 0-8.6 3.5-3.3 3.5-3.3 9 0 5.4 3.3 8.9 3.4 3.5 8.6 3.5z"/><path  d="m543.8 449.7l9.6-21.3h-2.5l-16.2-39h11.7l11.7 29.4 12.2-29.4h11.4l-26.5 60.3z"/><path class="a" d="m629.2 432.2q-6.5 0-11.4-2.3-5-2.2-7.9-6.4-2.8-4.1-2.9-10.1h11.3q0.2 4.1 3 6.9 2.9 2.8 7.8 2.8 4.3 0 6.8-2 2.6-2.1 2.6-5.5 0-3.6-2.3-5.7-2.2-2-5.9-3.2-3.7-1.3-7.9-2.7-6.8-2.4-10.4-6.1-3.6-3.7-3.6-9.8-0.1-5.3 2.5-9 2.6-3.7 7-5.8 4.5-2.1 10.3-2.1 5.9 0 10.4 2.1 4.5 2.1 7 5.9 2.6 3.8 2.8 9h-11.5q-0.1-3.1-2.4-5.5-2.4-2.4-6.5-2.4-3.5-0.1-5.9 1.7-2.4 1.9-2.4 5.3 0 3 1.8 4.7 1.9 1.7 5.1 2.9 3.2 1.2 7.3 2.5 4.4 1.5 8 3.5 3.6 2.1 5.8 5.4 2.2 3.3 2.2 8.5 0 4.6-2.4 8.6-2.3 4-6.9 6.4-4.7 2.4-11.4 2.4z"/><path fill-rule="evenodd" class="a" d="m692.2 449.7v-24.5q-2 2.7-5.3 4.8-3.3 2.2-8.7 2.2-5.8 0-10.5-2.9-4.6-2.9-7.3-7.8-2.7-5-2.7-11.3 0-6.3 2.7-11.2 2.7-5 7.3-7.8 4.7-2.8 10.5-2.8 4.8 0 8.3 1.8 3.5 1.7 5.7 4.9l1.2-5.7h9.6v60.3zm-11.7-27q5.2 0 8.5-3.5 3.4-3.5 3.4-8.9 0-5.5-3.4-9-3.3-3.5-8.5-3.5-5.1 0-8.5 3.5-3.4 3.4-3.4 8.9 0 5.5 3.4 9 3.4 3.5 8.5 3.5z"/><path class="a" d="m729.6 432.2q-7.9 0-12.1-4.9-4.3-4.9-4.3-14.3v-23.6h10.7v22.6q0 5.3 2.2 8.2 2.2 2.9 6.9 2.9 4.5 0 7.4-3.2 2.9-3.2 2.9-9v-21.5h10.7v41.7h-9.5l-0.8-7q-1.9 3.7-5.6 5.9-3.7 2.2-8.5 2.2z"/><path class="a" d="m770.9 382.9q-3 0-4.9-1.7-1.9-1.8-1.9-4.5 0-2.7 1.9-4.4 1.9-1.7 4.9-1.7 2.9 0 4.8 1.7 1.9 1.7 1.9 4.4 0 2.7-1.9 4.5-1.9 1.7-4.8 1.7zm-5.4 6.5h10.7v41.7h-10.7z"/><path fill-rule="evenodd" class="a" d="m806.7 432.2q-5.9 0-10.5-2.9-4.6-2.9-7.3-7.8-2.7-5-2.7-11.3 0-6.3 2.7-11.2 2.7-5 7.3-7.8 4.6-2.8 10.5-2.8 4.7 0 8.3 1.8 3.5 1.7 5.7 4.9v-24.5h10.7v60.5h-9.5l-1.2-5.9q-2 2.7-5.4 4.8-3.3 2.2-8.6 2.2zm2.3-9.5q5.2 0 8.5-3.5 3.3-3.5 3.3-8.9 0-5.5-3.3-9-3.3-3.5-8.5-3.5-5.1 0-8.5 3.5-3.4 3.4-3.4 8.9 0 5.5 3.4 9 3.4 3.5 8.5 3.5z"/><path  d="m862.8 432.2q-6.5 0-11.5-2.3-4.9-2.2-7.8-6.4-2.8-4.1-2.9-10.1h11.3q0.2 4.1 3 6.9 2.8 2.8 7.8 2.8 4.3 0 6.8-2 2.5-2.1 2.5-5.5 0-3.6-2.2-5.7-2.2-2-5.9-3.2-3.7-1.3-7.9-2.7-6.8-2.4-10.4-6.1-3.6-3.7-3.6-9.8-0.1-5.3 2.5-9 2.5-3.7 7-5.8 4.5-2.1 10.3-2.1 5.9 0 10.4 2.1 4.5 2.1 7 5.9 2.6 3.8 2.8 9h-11.6q0-3.1-2.4-5.5-2.3-2.4-6.4-2.4-3.5-0.1-5.9 1.7-2.4 1.9-2.4 5.3 0 3 1.8 4.7 1.9 1.7 5.1 2.9 3.2 1.2 7.3 2.5 4.4 1.5 8 3.5 3.6 2.1 5.8 5.4 2.2 3.3 2.2 8.5 0 4.6-2.4 8.6-2.3 4-7 6.4-4.6 2.4-11.3 2.4z"/><path fill-rule="evenodd" d="m912.7 432.2q-6.1 0-10.9-2.8-4.9-2.8-7.7-7.7-2.8-4.9-2.8-11.4 0-6.5 2.9-11.4 2.8-4.9 7.7-7.7 4.8-2.8 10.9-2.8 5.9 0 10.8 2.8 4.8 2.8 7.6 7.7 2.8 4.9 2.8 11.4 0 6.5-2.8 11.4-2.8 4.9-7.7 7.7-4.9 2.8-10.8 2.8zm0-9.4q4.2 0 7.3-3.1 3.1-3.2 3.1-9.4 0-6.3-3.1-9.4-3.1-3.2-7.2-3.2-4.3 0-7.4 3.2-3.1 3.1-3.1 9.4 0 6.2 3.1 9.4 3.1 3.1 7.3 3.1z"/><path  d="m945.6 431.1v-32.7h-5.8v-9h5.8v-4.9q0-7.5 3.8-10.7 3.8-3.2 10.4-3.2h4.6v9.1h-2.9q-2.8 0-4 1.1-1.2 1.1-1.2 3.7v4.9h9v9h-9v32.7z"/><path  d="m992.4 431.1q-6.5 0-10.5-3.2-3.9-3.2-3.9-11.3v-18.2h-7.2v-9h7.2l1.2-11.2h9.5v11.2h11.3v9h-11.3v18.3q0 3 1.3 4.1 1.3 1.2 4.5 1.2h5.2v9.1z"/><text style="transform:matrix(1,0,0,1,482.516,187.105)" ></text></svg>